HIERARCHY
ROOT Hips
{
	OFFSET 0.000000 88.474243 0.000000
	CHANNELS 6 Xposition Yposition Zposition Zrotation Yrotation Xrotation 
	JOINT Hips_Spine
	{
		OFFSET 0.000000 0.000000 0.000000
		CHANNELS 3 Zrotation Yrotation Xrotation
		JOINT Spine
		{
			OFFSET 0.005100 8.711998 -0.691000
			CHANNELS 3 Zrotation Yrotation Xrotation
			JOINT Spine1
			{
				OFFSET -0.009200 8.660301 -1.275000
				CHANNELS 3 Zrotation Yrotation Xrotation
				JOINT Spine2
				{
					OFFSET 0.006300 9.852501 -1.857000
					CHANNELS 3 Zrotation Yrotation Xrotation
					JOINT Spine2_Neck
					{
						OFFSET 0.000000 0.000000 0.000000
						CHANNELS 3 Zrotation Yrotation Xrotation
						JOINT Neck
						{
							OFFSET 0.016300 11.420799 -0.263300
							CHANNELS 3 Zrotation Yrotation Xrotation
							End Site #name: Head
							{
								OFFSET -0.019200 9.262405 2.362500
							}
						}
					}
					JOINT Spine2_LeftShoulder
					{
						OFFSET 0.000000 0.000000 0.000000
						CHANNELS 3 Zrotation Yrotation Xrotation
						JOINT LeftShoulder
						{
							OFFSET 5.616900 6.732201 -0.345700
							CHANNELS 3 Zrotation Yrotation Xrotation
							JOINT LeftArm
							{
								OFFSET 10.664888 -0.183372 -2.440700
								CHANNELS 3 Zrotation Yrotation Xrotation
								JOINT LeftForeArm
								{
									OFFSET 27.459126 0.000000 0.000000
									CHANNELS 3 Zrotation Yrotation Xrotation
									End Site #name: LeftHand
									{
										OFFSET 21.306858 0.000000 0.000000
									}
								}
							}
						}
					}
					JOINT Spine2_RightShoulder
					{
						OFFSET 0.000000 0.000000 0.000000
						CHANNELS 3 Zrotation Yrotation Xrotation
						JOINT RightShoulder
						{
							OFFSET -5.580300 6.737503 -0.344400
							CHANNELS 3 Zrotation Yrotation Xrotation
							JOINT RightArm
							{
								OFFSET -10.679335 -0.188484 -2.383900
								CHANNELS 3 Zrotation Yrotation Xrotation
								JOINT RightForeArm
								{
									OFFSET -27.503529 0.000000 0.000000
									CHANNELS 3 Zrotation Yrotation Xrotation
									End Site #name: RightHand
									{
										OFFSET -21.306808 0.000000 0.000000
									}
								}
							}
						}
					}
				}
			}
		}
	}
	JOINT Hips_LeftUpLeg
	{
		OFFSET 0.000000 0.000000 0.000000
		CHANNELS 3 Zrotation Yrotation Xrotation
		JOINT LeftUpLeg
		{
			OFFSET 6.857700 -6.739601 0.312100
			CHANNELS 3 Zrotation Yrotation Xrotation
			JOINT LeftLeg
			{
				OFFSET -0.367590 -34.731552 -4.572400
				CHANNELS 3 Zrotation Yrotation Xrotation
				End Site #name: LeftFoot
				{
					OFFSET 0.367590 -34.656704 -6.067400
				}
			}
		}
	}
	JOINT Hips_RightUpLeg
	{
		OFFSET 0.000000 0.000000 0.000000
		CHANNELS 3 Zrotation Yrotation Xrotation
		JOINT RightUpLeg
		{
			OFFSET -6.876100 -6.733299 0.301000
			CHANNELS 3 Zrotation Yrotation Xrotation
			JOINT RightLeg
			{
				OFFSET 0.347353 -34.795158 -4.515900
				CHANNELS 3 Zrotation Yrotation Xrotation
				End Site #name: RightFoot
				{
					OFFSET -0.347353 -34.589367 -6.070300
				}
			}
		}
	}
}
MOTION
Frames: 10
Frame Time: 0.041667
2.523858 8.577818 67.924181 -4.299246 -53.332307 3.341533 -0.000000 0.000000 0.000000 4.161561 4.831633 9.354634 0.490252 3.150559 6.574861 0.000000 0.000000 0.000000 0.086545 2.264995 4.343561 1.866489 5.150976 -1.329344 1.219833 2.001644 6.476068 2.496182 12.967199 -6.856544 -68.210753 -41.340738 -24.617255 -172.826586 -61.205554 173.304099 -0.595301 2.367750 3.092581 -1.161174 -0.009164 -2.559186 74.024791 65.868254 30.689894 -176.198607 71.031322 -174.494174 -0.000000 0.000000 0.000000 9.523653 33.231131 -36.296441 -1.911271 3.709989 75.300019 -0.000000 0.000000 -0.000000 -16.945765 -12.610375 -35.566246 -1.721779 2.697544 97.530630 
2.815621 8.707820 71.844750 -1.561444 -53.179735 0.923751 -0.000000 0.000000 0.000000 3.825091 4.755419 9.744618 0.595944 3.226861 6.637974 0.000000 0.000000 0.000000 0.146895 2.214197 4.850966 1.461263 4.874129 -0.868315 1.284016 2.164378 6.703959 3.219177 13.626878 -6.777971 -67.893177 -39.594682 -25.550053 -171.987701 -61.719513 172.621570 -0.512795 2.174594 3.225334 -0.801561 -0.773636 -2.686694 69.623342 65.252866 26.417300 -176.581925 70.185596 -174.781553 -0.000000 0.000000 0.000000 9.704047 34.162066 -36.477283 -1.635121 3.945092 73.422112 -0.000000 0.000000 -0.000000 -17.595644 -16.203533 -36.333822 -2.511582 2.916942 103.742901 
3.243252 8.141534 75.719971 1.023792 -53.417761 -2.111795 -0.000000 0.000000 0.000000 3.411193 4.597485 10.213724 0.742619 3.251326 6.741234 0.000000 0.000000 0.000000 0.238669 2.155802 5.393985 1.104638 4.469208 -0.657301 1.337758 2.281477 7.096845 3.977340 14.339969 -6.683838 -68.092989 -38.603151 -26.045569 -171.568835 -60.855422 172.347354 -0.389446 1.982673 3.587532 -0.109993 -1.509870 -2.736385 65.413925 64.269624 22.525466 -177.262317 69.604036 -175.388442 -0.000000 0.000000 0.000000 9.573161 35.134192 -37.880184 -1.520567 4.103943 71.763616 -0.000000 -0.000000 -0.000000 -18.048959 -19.404994 -36.694088 -3.188774 3.176857 108.415992 
3.821786 6.881278 79.580118 4.052360 -54.340480 -6.045674 -0.000000 0.000000 0.000000 2.889669 4.376288 10.733434 0.880203 3.238047 6.909931 0.000000 0.000000 0.000000 0.364034 2.068159 5.978617 0.864400 4.121643 -0.370908 1.383267 2.320832 7.646651 4.670970 15.021467 -6.615137 -68.626817 -38.473927 -26.291354 -171.251500 -59.661150 172.201888 -0.237179 1.812867 4.184662 0.825804 -2.115728 -2.707447 61.817492 62.963463 19.436320 -178.267748 69.333799 -176.341935 -0.000000 0.000000 0.000000 9.111467 36.299186 -40.365791 -1.412373 4.272951 70.161352 -0.000000 -0.000000 -0.000000 -18.273544 -22.470101 -37.099509 -3.632469 3.389714 112.251696 
4.581665 4.893547 83.465852 6.857903 -55.855556 -9.866283 -0.000000 0.000000 0.000000 2.253795 4.103207 11.333551 0.996099 3.188018 7.147101 0.000000 0.000000 0.000000 0.576214 1.930244 6.630140 0.894803 3.768920 -0.102679 1.402341 2.301568 8.295931 5.267142 15.522122 -6.570509 -69.387705 -38.937847 -26.261506 -171.065190 -58.326121 172.176255 -0.066689 1.673073 4.944380 1.965552 -2.473122 -2.563514 59.013106 61.454978 17.478813 -179.587679 69.473604 -177.630964 -0.000000 0.000000 0.000000 7.385266 37.227970 -44.578025 -1.285577 4.450012 68.229020 -0.000000 -0.000000 -0.000000 -18.056046 -25.820349 -38.400938 -4.017736 3.465195 115.104374 
5.418770 2.248389 87.327183 8.546287 -56.654558 -11.710207 -0.000000 0.000000 0.000000 1.705375 3.682461 11.801629 1.114325 3.089991 7.428909 0.000000 0.000000 0.000000 0.808066 1.822230 7.186866 1.342257 3.503678 0.087722 1.396963 2.285309 8.987607 5.539355 15.747575 -6.577355 -70.394317 -39.747753 -26.032158 -170.966309 -56.916150 172.151208 0.088956 1.559525 5.700823 3.128770 -2.590250 -2.312031 57.032028 60.084132 16.600177 178.891785 69.556765 -179.042159 -0.000000 0.000000 0.000000 5.006997 37.853608 -48.489527 -1.279043 4.483439 66.199241 -0.000000 -0.000000 -0.000000 -17.181482 -28.834751 -40.881195 -4.320025 3.518161 117.351880 
6.287518 -0.850819 91.113565 9.322813 -56.770064 -11.711585 -0.000000 0.000000 0.000000 1.206394 3.156307 12.161410 1.229287 2.949898 7.718586 0.000000 0.000000 0.000000 1.072544 1.740521 7.611528 1.991362 3.138769 0.151170 1.370077 2.283739 9.687032 5.375528 15.710803 -6.624239 -71.370129 -41.014223 -25.880029 -170.578426 -56.574308 171.787952 0.245689 1.467357 6.567129 4.297310 -2.282075 -2.029452 55.524057 59.187866 16.569821 177.154670 69.610497 179.403176 -0.000000 0.000000 0.000000 1.318058 38.387968 -53.983471 -1.247726 4.442104 64.184067 -0.000000 -0.000000 -0.000000 -15.184563 -31.321518 -45.119713 -4.780740 3.741188 119.484868 
7.106664 -4.450575 94.766294 9.070762 -55.873860 -10.000376 -0.000000 0.000000 0.000000 0.798954 2.556357 12.369980 1.338493 2.782185 7.972604 0.000000 0.000000 0.000000 1.391125 1.679514 7.966376 2.554612 2.688224 -0.113084 1.308952 2.249211 10.408413 4.775892 15.437861 -6.706755 -71.658451 -43.084762 -26.403755 -169.868646 -57.303763 171.094195 0.387078 1.394864 7.561567 5.274983 -1.517830 -1.481369 54.409158 59.010322 17.293270 175.150427 69.351205 177.649396 -0.000000 0.000000 0.000000 -3.256294 38.643452 -60.852752 -1.003149 4.401197 62.783446 -0.000000 -0.000000 -0.000000 -11.641804 -33.054991 -51.566434 -5.327745 3.975831 119.535571 
7.811584 -8.649942 98.220304 7.359635 -54.258127 -6.232845 -0.000000 0.000000 0.000000 0.526948 1.935713 12.338367 1.446985 2.593391 8.190275 0.000000 0.000000 0.000000 1.719645 1.651786 8.267892 3.116960 2.252013 -0.719782 1.200957 2.192020 11.126110 3.615893 14.770922 -6.837105 -71.552802 -45.462530 -27.139508 -168.574863 -59.437141 169.788135 0.524874 1.332216 8.677731 6.293264 0.534885 -0.681372 53.283764 59.322946 18.295358 173.118485 68.579381 175.871648 -0.000000 0.000000 0.000000 -6.618625 36.970504 -66.500171 -0.707688 4.255521 61.594960 -0.000000 -0.000000 -0.000000 -6.940445 -33.163058 -60.297985 -5.771394 4.460522 118.409459 
8.347478 -13.375966 101.280074 5.852431 -53.090227 -2.390799 -0.000000 0.000000 0.000000 0.391938 1.402626 12.376718 1.542460 2.423957 8.451654 0.000000 0.000000 0.000000 1.987621 1.562943 8.371287 3.592312 1.649359 -1.715621 1.103249 2.139782 11.689039 2.265453 13.836248 -7.030734 -70.786938 -47.480035 -28.326277 -167.016998 -62.396365 168.158112 0.615918 1.261630 9.646609 7.477146 2.736382 0.071728 50.885042 60.218620 18.089652 171.916210 67.426877 174.882031 -0.000000 0.000000 0.000000 -9.234273 35.373187 -71.533958 -0.527790 4.199642 59.945465 -0.000000 -0.000000 -0.000000 -2.242273 -31.191749 -69.900509 -6.247060 4.819200 114.800820 
